#!OML:ASF H:\Swim 2\Project 1\Capture day 1\Session 1\male.ASF
:FULLY-SPECIFIED
:DEGREES
1450
root 7.41516 9.0809 10.4334 94.7436 -0.272572 4.9432
lowerback -4.73947 1.23509 -3.9021
upperback 0.198307 1.86225 0.361901
thorax 2.72653 0.873189 2.69102
lowerneck -17.0021 -15.8179 -1.60456
upperneck 50.0711 -14.8158 -16.8523
head 22.2271 -7.04277 -11.9282
rclavicle -2.22639e-014 2.78299e-015
rhumerus 38.3242 16.2642 -10.1838
rradius 88.4819
rwrist -48.6965
rhand -32.491 2.91157
rfingers 7.12502
rthumb -5.72283 -26.9911
lclavicle -2.22639e-014 2.78299e-015
lhumerus 59.0586 -24.329 11.9402
lradius 89.0842
lwrist 59.9997
lhand -47.6481 -8.86347
lfingers 7.12502
lthumb -20.3302 20.0924
rfemur -55.8757 19.9396 5.60773
rtibia 42.2449
rfoot 18.4799 11.9543
rtoes -44.167
lfemur -52.0053 -16.9764 -13.4822
ltibia 45.0109
lfoot 23.4869 3.7343
ltoes 10.5066
1451
root 7.41854 9.08132 10.4396 94.7846 -0.305607 4.87852
lowerback -4.80018 1.30346 -3.98464
upperback 0.21458 1.96079 0.383113
thorax 2.76674 0.91995 2.7678
lowerneck -16.8998 -15.9446 -1.56783
upperneck 50.0988 -14.9631 -16.9712
head 22.1415 -7.11093 -11.9885
rclavicle 2.54444e-014 -7.85199e-015
rhumerus 38.4837 16.7191 -10.2004
rradius 89.0012
rwrist -48.8696
rhand -32.6717 2.71803
rfingers 7.12502
rthumb -5.89725 -27.1799
lclavicle 2.54444e-014 -7.85199e-015
lhumerus 59.7439 -24.6517 11.8413
lradius 89.5839
lwrist 59.749
lhand -47.5583 -8.53835
lfingers 7.12502
lthumb -20.2439 20.4267
rfemur -55.8054 19.7392 5.77746
rtibia 42.2653
rfoot 18.3614 11.8585
rtoes -44.2331
lfemur -52.126 -16.7078 -13.629
ltibia 45.2114
lfoot 23.5161 3.55268
ltoes 10.8401
1452
root 7.4216 9.08184 10.4453 94.8499 -0.336253 4.81807
lowerback -4.89112 1.37918 -4.08276
upperback 0.227628 2.07151 0.406208
thorax 2.81869 0.972306 2.85717
lowerneck -16.7867 -16.07 -1.5388
upperneck 50.1236 -15.1258 -17.0446
head 22.0551 -7.18127 -12.0226
rclavicle 6.36111e-015 -1.00386e-014
rhumerus 38.6234 17.1424 -10.2061
rradius 89.4638
rwrist -48.9771
rhand -32.9442 2.55727
rfingers 7.12502
rthumb -6.16035 -27.3332
lclavicle 6.36111e-015 -1.00386e-014
lhumerus 60.451 -24.9757 11.7641
lradius 90.0514
lwrist 59.5388
lhand -47.4996 -8.19706
lfingers 7.12502
lthumb -20.1875 20.774
rfemur -55.7748 19.4943 5.96134
rtibia 42.3101
rfoot 18.249 11.7979
rtoes -44.2825
lfemur -52.2731 -16.4029 -13.799
ltibia 45.4447
lfoot 23.4985 3.3806
ltoes 11.2537
1453
root 7.42446 9.08243 10.4503 94.9423 -0.363829 4.76529
lowerback -5.0133 1.45334 -4.18516
upperback 0.234957 2.18204 0.42894
thorax 2.88171 1.02429 2.94977
lowerneck -16.671 -16.1757 -1.53602
upperneck 50.1409 -15.2823 -17.0431
head 21.9832 -7.2442 -12.0131
rclavicle -3.02153e-014 7.45443e-015
rhumerus 38.7659 17.55 -10.1857
rradius 89.8817
rwrist -49.0939
rhand -33.3257 2.44727
rfingers 7.12502
rthumb -6.52866 -27.4321
lclavicle -3.02153e-014 7.45443e-015
lhumerus 61.1588 -25.3001 11.6595
lradius 90.5065
lwrist 59.4139
lhand -47.5192 -7.85485
lfingers 7.12502
lthumb -20.2063 21.1142
rfemur -55.7867 19.1901 6.16984
rtibia 42.3927
rfoot 18.147 11.7682
rtoes -44.3139
lfemur -52.452 -16.0666 -13.9883
ltibia 45.713
lfoot 23.414 3.21655
ltoes 11.6497
1454
root 7.42714 9.08306 10.4546 95.0601 -0.385867 4.71695
lowerback -5.1654 1.51952 -4.28188
upperback 0.236587 2.28325 0.451362
thorax 2.95617 1.07147 3.03954
lowerneck -16.5629 -16.2548 -1.55701
upperneck 50.1524 -15.4176 -16.9801
head 21.9324 -7.29429 -11.9695
rclavicle -1.90833e-014 1.10325e-014
rhumerus 38.9309 17.9501 -10.1307
rradius 90.2687
rwrist -49.2504
rhand -33.7974 2.38594
rfingers 7.12502
rthumb -6.98404 -27.4788
lclavicle -1.90833e-014 1.10325e-014
lhumerus 61.8426 -25.6199 11.5001
lradius 90.9587
lwrist 59.3822
lhand -47.6378 -7.45073
lfingers 7.12502
lthumb -20.3203 21.5062
rfemur -55.8406 18.8231 6.41351
rtibia 42.5236
rfoot 18.055 11.7659
rtoes -44.3202
lfemur -52.664 -15.6988 -14.1916
ltibia 46.0216
lfoot 23.264 3.06418
ltoes 12.0662
1455
root 7.4298 9.08368 10.4583 95.1906 -0.404475 4.6697
lowerback -5.33503 1.57171 -4.36561
upperback 0.235901 2.36614 0.471889
thorax 3.03982 1.10943 3.1198
lowerneck -16.4757 -16.3092 -1.57999
upperneck 50.1612 -15.523 -16.9014
head 21.8993 -7.33019 -11.9201
rclavicle -1.27222e-014 -8.84592e-015
rhumerus 39.1345 18.3497 -10.0433
rradius 90.6513
rwrist -49.4788
rhand -34.372 2.31609
rfingers 7.12502
rthumb -7.53863 -27.5296
lclavicle -1.27222e-014 -8.84592e-015
lhumerus 62.4847 -25.9273 11.242
lradius 91.4257
lwrist 59.4945
lhand -47.9374 -7.15515
lfingers 7.12502
lthumb -20.6083 21.7709
rfemur -55.925 18.398 6.69496
rtibia 42.7127
rfoot 18.0068 11.7681
rtoes -44.2902
lfemur -52.8967 -15.3178 -14.403
ltibia 46.3708
lfoot 23.0259 2.94526
ltoes 12.4526
1456
root 7.43268 9.0842 10.4613 95.3185 -0.417873 4.62516
lowerback -5.50485 1.60677 -4.42606
upperback 0.23625 2.425 0.489958
thorax 3.12747 1.13557 3.18314
lowerneck -16.4137 -16.3291 -1.61685
upperneck 50.1594 -15.5887 -16.7869
head 21.8876 -7.34814 -11.8514
rclavicle -2.54444e-014 4.96962e-016
rhumerus 39.3777 18.7473 -9.93462
rradius 91.047
rwrist -49.7757
rhand -35.0024 2.17192
rfingers 7.12502
rthumb -8.1471 -27.651
lclavicle -2.54444e-014 4.96962e-016
lhumerus 63.0568 -26.2119 10.8878
lradius 91.9287
lwrist 59.7363
lhand -48.3785 -6.87651
lfingers 7.12502
lthumb -21.0321 22.003
rfemur -56.0225 17.9198 7.02008
rtibia 42.9677
rfoot 17.9751 11.7737
rtoes -44.2284
lfemur -53.1368 -14.9378 -14.6171
ltibia 46.7631
lfoot 22.6709 2.88091
ltoes 12.7432
1457
root 7.43605 9.08472 10.4637 95.4316 -0.425216 4.58574
lowerback -5.66215 1.62338 -4.45634
upperback 0.241437 2.45682 0.505686
thorax 3.21663 1.14849 3.225
lowerneck -16.3888 -16.3506 -1.59367
upperneck 50.1725 -15.6331 -16.7799
head 21.8741 -7.36008 -11.8525
rclavicle -1.90833e-014 -5.26779e-015
rhumerus 39.6514 19.1401 -9.81276
rradius 91.4671
rwrist -50.1501
rhand -35.6159 1.99076
rfingers 7.12502
rthumb -8.73914 -27.8083
lclavicle -1.90833e-014 -5.26779e-015
lhumerus 63.551 -26.467 10.452
lradius 92.46
lwrist 60.0985
lhand -48.9182 -6.64803
lfingers 7.12502
lthumb -21.5505 22.173
rfemur -56.1225 17.3986 7.38402
rtibia 43.2951
rfoot 17.9773 11.7666
rtoes -44.0933
lfemur -53.3724 -14.5724 -14.8291
ltibia 47.2001
lfoot 22.1883 2.89409
ltoes 12.982
1458
root 7.43985 9.08531 10.4655 95.5156 -0.42497 4.54317
lowerback -5.79296 1.62995 -4.45714
upperback 0.2549 2.47208 0.518896
thorax 3.30219 1.15351 3.24576
lowerneck -16.393 -16.3508 -1.56045
upperneck 50.1766 -15.6489 -16.7776
head 21.8681 -7.36051 -11.8581
rclavicle -2.54444e-014 -3.47873e-015
rhumerus 39.9295 19.5221 -9.69774
rradius 91.9114
rwrist -50.5984
rhand -36.1699 1.83267
rfingers 7.12502
rthumb -9.2737 -27.9434
lclavicle -2.54444e-014 -3.47873e-015
lhumerus 63.9486 -26.6932 9.9726
lradius 93.0388
lwrist 60.5478
lhand -49.4842 -6.5064
lfingers 7.12502
lthumb -22.094 22.2513
rfemur -56.2111 16.8502 7.78557
rtibia 43.6987
rfoot 18.0208 11.7263
rtoes -43.8774
lfemur -53.588 -14.2121 -15.0433
ltibia 47.6885
lfoot 21.5662 2.97562
ltoes 13.1884
1459
root 7.44419 9.08631 10.4669 95.5661 -0.418071 4.50288
lowerback -5.89144 1.62843 -4.42815
upperback 0.276696 2.47298 0.528456
thorax 3.38086 1.15188 3.24388
lowerneck -16.419 -16.3356 -1.51824
upperneck 50.1725 -15.6441 -16.78
head 21.8657 -7.35287 -11.8674
rclavicle -1.59028e-014 -1.78906e-015
rhumerus 40.1953 19.8956 -9.58627
rradius 92.3815
rwrist -51.113
rhand -36.6473 1.69989
rfingers 7.12502
rthumb -9.73439 -28.0551
lclavicle -1.59028e-014 -1.78906e-015
lhumerus 64.2378 -26.8936 9.494
lradius 93.6628
lwrist 61.0427
lhand -50.0038 -6.44489
lfingers 7.12502
lthumb -22.5928 22.253
rfemur -56.2863 16.2785 8.21755
rtibia 44.1828
rfoot 18.0985 11.6564
rtoes -43.5866
lfemur -53.7825 -13.8597 -15.2621
ltibia 48.2339
lfoot 20.7915 3.10461
ltoes 13.3251
1460
root 7.44885 9.08799 10.468 95.5887 -0.403002 4.45695
lowerback -5.96235 1.62606 -4.37517
upperback 0.303918 2.46968 0.536189
thorax 3.45109 1.14871 3.22536
lowerneck -16.4586 -16.3101 -1.47105
upperneck 50.1577 -15.6264 -16.7831
head 21.8613 -7.34097 -11.8761
rclavicle 4.77083e-015 1.78906e-014
rhumerus 40.435 20.2658 -9.46869
rradius 92.8738
rwrist -51.6619
rhand -37.0747 1.62394
rfingers 7.12502
rthumb -10.1467 -28.1114
lclavicle 4.77083e-015 1.78906e-014
lhumerus 64.424 -27.0772 9.04929
lradius 94.3198
lwrist 61.5443
lhand -50.4584 -6.53786
lfingers 7.12502
lthumb -23.029 22.1063
rfemur -56.3568 15.6866 8.68049
rtibia 44.7498
rfoot 18.2281 11.5734
rtoes -43.2363
lfemur -53.9651 -13.5016 -15.4834
ltibia 48.845
lfoot 19.8702 3.24212
ltoes 13.374
1461
root 7.45387 9.09058 10.4689 95.5891 -0.38055 4.41227
lowerback -6.00869 1.62221 -4.29831
upperback 0.333019 2.46146 0.541449
thorax 3.51093 1.1438 3.18954
lowerneck -16.5062 -16.2771 -1.42384
upperneck 50.1347 -15.5981 -16.786
head 21.8556 -7.32603 -11.8828
rclavicle 1.59028e-014 -9.0447e-015
rhumerus 40.6484 20.648 -9.32769
rradius 93.3888
rwrist -52.2197
rhand -37.524 1.56692
rfingers 7.12502
rthumb -10.5802 -28.1468
lclavicle 1.59028e-014 -9.0447e-015
lhumerus 64.5213 -27.2509 8.6288
lradius 95.0054
lwrist 62.0503
lhand -50.9047 -6.91174
lfingers 7.12502
lthumb -23.4572 21.6783
rfemur -56.4313 15.0681 9.16989
rtibia 45.4028
rfoot 18.3733 11.4937
rtoes -42.838
lfemur -54.1489 -13.141 -15.7055
ltibia 49.5274
lfoot 18.8583 3.35096
ltoes 13.3716
1462
root 7.45898 9.09419 10.4701 95.559 -0.351032 4.36283
lowerback -6.01957 1.62026 -4.20311
upperback 0.364098 2.45269 0.545663
thorax 3.55369 1.1394 3.14093
lowerneck -16.555 -16.2394 -1.3819
upperneck 50.1005 -15.5623 -16.7859
head 21.8445 -7.31046 -11.8834
rclavicle -1.11319e-014 -3.77691e-015
rhumerus 40.84 21.0559 -9.1407
rradius 93.9245
rwrist -52.7428
rhand -38.0481 1.51396
rfingers 7.12502
rthumb -11.0857 -28.1733
lclavicle -1.11319e-014 -3.77691e-015
lhumerus 64.5392 -27.4196 8.23589
lradius 95.715
lwrist 62.5355
lhand -51.3862 -7.55233
lfingers 7.12502
lthumb -23.919 20.978
rfemur -56.5057 14.431 9.68654
rtibia 46.1436
rfoot 18.535 11.4428
rtoes -42.44
lfemur -54.3265 -12.7663 -15.9322
ltibia 50.2851
lfoot 17.8704 3.39414
ltoes 13.5476
1463
root 7.46402 9.09884 10.4718 95.5004 -0.319241 4.31099
lowerback -5.99685 1.61907 -4.09742
upperback 0.396451 2.44262 0.548277
thorax 3.57943 1.13502 3.08339
lowerneck -16.6093 -16.1949 -1.34944
upperneck 50.064 -15.5138 -16.7833
head 21.8393 -7.29099 -11.8813
rclavicle 2.06736e-014 4.47266e-015
rhumerus 41.0166 21.4996 -8.89735
rradius 94.4732
rwrist -53.181
rhand -38.6555 1.5022
rfingers 7.12502
rthumb -11.6715 -28.1527
lclavicle 2.06736e-014 4.47266e-015
lhumerus 64.4845 -27.5782 7.88397
lradius 96.4254
lwrist 62.8897
lhand -51.7777 -8.19353
lfingers 7.12502
lthumb -24.2944 20.287
rfemur -56.5856 13.7771 10.219
rtibia 46.9735
rfoot 18.7028 11.4268
rtoes -42.0476
lfemur -54.5058 -12.3861 -16.1607
ltibia 51.1184
lfoot 16.9931 3.36315
ltoes 13.9956
1464
root 7.46877 9.10435 10.474 95.4121 -0.28926 4.25739
lowerback -5.93648 1.61824 -3.98854
upperback 0.429797 2.43122 0.548385
thorax 3.5853 1.13055 3.01991
lowerneck -16.6701 -16.1436 -1.32724
upperneck 50.0221 -15.4543 -16.7741
head 21.8386 -7.26826 -11.8739
rclavicle 4.92986e-014 8.94531e-016
rhumerus 41.1803 21.9877 -8.58788
rradius 95.0391
rwrist -53.509
rhand -39.395 1.605
rfingers 7.12502
rthumb -12.3845 -28.0082
lclavicle 4.92986e-014 8.94531e-016
lhumerus 64.3641 -27.7314 7.57232
lradius 97.1382
lwrist 63.0761
lhand -52.0935 -8.75561
lfingers 7.12502
lthumb -24.5971 19.6841
rfemur -56.6745 13.1137 10.7554
rtibia 47.8919
rfoot 18.8688 11.449
rtoes -41.6847
lfemur -54.6883 -12.0035 -16.392
ltibia 52.0277
lfoot 16.3132 3.25582
ltoes 14.8337
